<svg
	xmlns="http://www.w3.org/2000/svg"
	viewBox="0 0 100 100"
	fill="none"
>
	<rect width="100" height="100" rx="16" fill="#f9faf8" />
	<g stroke="#17343b" stroke-linecap="round" stroke-linejoin="round">
		<path d="M10 88 Q 50 82 90 88" stroke-width="3" />
		<path d="M60 85 V 35 L 75 10 L 90 35 V 85" stroke-width="3" />
		<path d="M60 35 L 60 25" stroke-width="2" />
		<path d="M90 35 L 90 25" stroke-width="2" />
		<path d="M20 86 V 60 Q 30 40 45 55 Q 55 65 60 55" stroke-width="3" />
		<path d="M28 65 V 78" stroke-width="2" />
		<path d="M34 65 V 78" stroke-width="2" />
		<path d="M40 65 V 78" stroke-width="2" />
		<path d="M46 65 V 78" stroke-width="2" />
		<path d="M52 65 V 78" stroke-width="2" />
	</g>
	<circle cx="75" cy="45" r="4" fill="#17343b" />
	<path d="M71 78 V 65 A 4 4 0 0 1 79 65 V 78 H 71 Z" fill="#17343b" />
</svg>
